HIERARCHY
ROOT hip
{
  OFFSET 0 0 0
  CHANNELS 6 Xposition Yposition Zposition Zrotation Yrotation Xrotation
  JOINT abdomen
  {
    OFFSET 0 20.6881 -0.73152
    CHANNELS 3 Zrotation Xrotation Yrotation
    JOINT chest
    {
      OFFSET 0 11.7043 -0.48768
      CHANNELS 3 Zrotation Xrotation Yrotation
      JOINT neck
      {
        OFFSET 0 22.1894 -2.19456
        CHANNELS 3 Zrotation Xrotation Yrotation
        JOINT head
        {
          OFFSET -0.24384 7.07133 1.2192
          CHANNELS 3 Zrotation Xrotation Yrotation
          JOINT leftEye
          {
            OFFSET 4.14528 8.04674 8.04672
            CHANNELS 3 Zrotation Xrotation Yrotation
            End Site
            {
              OFFSET 1 0 0
            }
          }
          JOINT rightEye
          {
            OFFSET -3.6576 8.04674 8.04672
            CHANNELS 3 Zrotation Xrotation Yrotation
            End Site
            {
              OFFSET 1 0 0
            }
          }
        }
      }
      JOINT rCollar
      {
        OFFSET -2.68224 19.2634 -4.8768
        CHANNELS 3 Zrotation Xrotation Yrotation
        JOINT rShldr
        {
          OFFSET -8.77824 -1.95073 1.46304
          CHANNELS 3 Zrotation Xrotation Yrotation
          JOINT rForeArm
          {
            OFFSET -28.1742 -1.7115 0.48768
            CHANNELS 3 Zrotation Xrotation Yrotation
            JOINT rHand
            {
              OFFSET -22.5879 0.773209 7.07136
              CHANNELS 3 Zrotation Xrotation Yrotation
              JOINT rThumb1
              {
                OFFSET -1.2192 -0.487915 3.41376
                CHANNELS 3 Zrotation Xrotation Yrotation
                JOINT rThumb2
                {
                  OFFSET -3.37035 -0.52449 3.41376
                  CHANNELS 3 Zrotation Xrotation Yrotation
                  End Site
                  {
                    OFFSET -1.78271 -1.18214 1.43049
                  }
                }
              }
              JOINT rIndex1
              {
                OFFSET -7.75947 0.938293 5.60832
                CHANNELS 3 Zrotation Xrotation Yrotation
                JOINT rIndex2
                {
                  OFFSET -2.54057 -0.884171 1.56538
                  CHANNELS 3 Zrotation Xrotation Yrotation
                  End Site
                  {
                    OFFSET -1.62519 -0.234802 1.16502
                  }
                }
              }
              JOINT rMid1
              {
                OFFSET -8.24714 1.18213 3.41376
                CHANNELS 3 Zrotation Xrotation Yrotation
                JOINT rMid2
                {
                  OFFSET -3.10165 -0.590103 1.0647
                  CHANNELS 3 Zrotation Xrotation Yrotation
                  End Site
                  {
                    OFFSET -2.48547 -0.328903 0.83742
                  }
                }
              }
              JOINT rRing1
              {
                OFFSET -8.82822 0.546677 1.51678
                CHANNELS 3 Zrotation Xrotation Yrotation
                JOINT rRing2
                {
                  OFFSET -2.60934 -0.819778 -0.0198488
                  CHANNELS 3 Zrotation Xrotation Yrotation
                  End Site
                  {
                    OFFSET -2.33842 -0.294052 0.168128
                  }
                }
              }
              JOINT rPinky1
              {
                OFFSET -8.27202 -0.0477905 -0.4584
                CHANNELS 3 Zrotation Xrotation Yrotation
                JOINT rPinky2
                {
                  OFFSET -1.82734 -0.647385 -0.700984
                  CHANNELS 3 Zrotation Xrotation Yrotation
                  End Site
                  {
                    OFFSET -1.69225 -0.51767 -0.607171
                  }
                }
              }
            }
          }
        }
      }
      JOINT lCollar
      {
        OFFSET 2.68224 19.2634 -4.8768
        CHANNELS 3 Zrotation Xrotation Yrotation
        JOINT lShldr
        {
          OFFSET 8.77824 -1.95073 1.46304
          CHANNELS 3 Zrotation Xrotation Yrotation
          JOINT lForeArm
          {
            OFFSET 28.1742 -1.7115 0.48768
            CHANNELS 3 Zrotation Xrotation Yrotation
            JOINT lHand
            {
              OFFSET 22.5879 0.773209 7.07136
              CHANNELS 3 Zrotation Xrotation Yrotation
              JOINT lThumb1
              {
                OFFSET 1.2192 -0.487915 3.41376
                CHANNELS 3 Zrotation Xrotation Yrotation
                JOINT lThumb2
                {
                  OFFSET 3.37035 -0.52449 3.41376
                  CHANNELS 3 Zrotation Xrotation Yrotation
                  End Site
                  {
                    OFFSET 1.78271 -1.18214 1.43049
                  }
                }
              }
              JOINT lIndex1
              {
                OFFSET 7.75947 0.938293 5.60832
                CHANNELS 3 Zrotation Xrotation Yrotation
                JOINT lIndex2
                {
                  OFFSET 2.54057 -0.884171 1.56538
                  CHANNELS 3 Zrotation Xrotation Yrotation
                  End Site
                  {
                    OFFSET 1.62519 -0.234802 1.16502
                  }
                }
              }
              JOINT lMid1
              {
                OFFSET 8.24714 1.18213 3.41376
                CHANNELS 3 Zrotation Xrotation Yrotation
                JOINT lMid2
                {
                  OFFSET 3.10165 -0.590103 1.0647
                  CHANNELS 3 Zrotation Xrotation Yrotation
                  End Site
                  {
                    OFFSET 2.48547 -0.328903 0.83742
                  }
                }
              }
              JOINT lRing1
              {
                OFFSET 8.82822 0.546677 1.51678
                CHANNELS 3 Zrotation Xrotation Yrotation
                JOINT lRing2
                {
                  OFFSET 2.60934 -0.819778 -0.0198488
                  CHANNELS 3 Zrotation Xrotation Yrotation
                  End Site
                  {
                    OFFSET 2.33842 -0.294052 0.168128
                  }
                }
              }
              JOINT lPinky1
              {
                OFFSET 8.27202 -0.0477905 -0.4584
                CHANNELS 3 Zrotation Xrotation Yrotation
                JOINT lPinky2
                {
                  OFFSET 1.82734 -0.647385 -0.700984
                  CHANNELS 3 Zrotation Xrotation Yrotation
                  End Site
                  {
                    OFFSET 1.69225 -0.51767 -0.607171
                  }
                }
              }
            }
          }
        }
      }
    }
  }
  JOINT rButtock
  {
    OFFSET -8.77824 4.35084 1.2192
    CHANNELS 3 Zrotation Xrotation Yrotation
    JOINT rThigh
    {
      OFFSET 0 -1.70687 -2.19456
      CHANNELS 3 Zrotation Xrotation Yrotation
      JOINT rShin
      {
        OFFSET 0 -36.8199 0.73152
        CHANNELS 3 Zrotation Xrotation Yrotation
        JOINT rFoot
        {
          OFFSET 0.73152 -45.1104 -5.12064
          CHANNELS 3 Zrotation Xrotation Yrotation
          End Site
          {
            OFFSET -1.1221 -3.69964 12.103
          }
        }
      }
    }
  }
  JOINT lButtock
  {
    OFFSET 8.77824 4.35084 1.2192
    CHANNELS 3 Zrotation Xrotation Yrotation
    JOINT lThigh
    {
      OFFSET 0 -1.70687 -2.19456
      CHANNELS 3 Zrotation Xrotation Yrotation
      JOINT lShin
      {
        OFFSET 0 -36.8199 0.73152
        CHANNELS 3 Zrotation Xrotation Yrotation
        JOINT lFoot
        {
          OFFSET -0.73152 -45.1104 -5.12064
          CHANNELS 3 Zrotation Xrotation Yrotation
          End Site
          {
            OFFSET 1.1221 -3.69964 12.103
          }
        }
      }
    }
  }
}
MOTION
Frames:	5
Frame Time:	0.00833333
0.969991 83.4305 41.803 178.654 1.8957 -170.868 -3.5127 -6.0363 0.843068 3.24857 4.47159 0.227135 3.81512 -19.8908 -0.173966 0.462269 28.9294 0.412795 -0.0 0.0 0.0 -0.0 0.0 0.0 1.86593e-14 1.1629e-13 -3.07402e-14 82.7625 3.58133 -4.6823 -12.266 -5.63692 22.1259 -1.68575 34.1868 5.47804 5.96547e-10 -9.92139e-13 -7.11264e-10 1.01038e-09 1.24958e-11 -1.24286e-09 5.96549e-10 -9.86444e-13 -7.11278e-10 7.73091 5.47488 0.417314 5.96539e-10 -9.82846e-13 -7.11262e-10 2.90554 0.965183 0.102902 5.96546e-10 -9.81232e-13 -7.11267e-10 10.2786 0.731801 0.0259123 5.96548e-10 -9.8207e-13 -7.11256e-10 2.22167 -0.733487 -0.20892 1.86792e-14 1.16289e-13 -3.09669e-14 -81.0707 12.7339 -5.24517 9.6659 -3.94034 -17.1762 4.91392 51.4846 -10.1708 -7.56929e-10 -4.61688e-10 -2.75335e-10 -1.3147e-09 -7.63282e-10 -4.43112e-10 -7.56938e-10 -4.61679e-10 -2.75333e-10 -7.73091 5.47488 -0.417314 -7.56924e-10 -4.6168e-10 -2.75336e-10 -2.90554 0.965183 -0.102902 -7.56926e-10 -4.6168e-10 -2.75342e-10 -10.2786 0.731801 -0.0259123 -7.56928e-10 -4.61679e-10 -2.75357e-10 -2.22167 -0.733487 0.20892 -2.03217e-16 0.0 -3.88251e-19 4.62577 -21.949 7.14322 -0.171886 33.2146 0.606435 -5.22746 -9.76142 -18.9804 2.03217e-16 0.0 3.88251e-19 -6.8633 -18.048 -8.47129 0.167215 27.6183 -0.440065 3.35317 -2.02831 21.7666
0.938979 83.3759 41.6951 178.653 1.8212 -170.849 -3.52987 -6.03357 0.890703 3.26533 4.41644 0.24206 3.78357 -19.9028 -0.228134 0.567775 29.1164 0.387001 -0.0 0.0 0.0 -0.0 0.0 0.0 2.13532e-14 1.6944e-13 -2.11869e-15 82.7318 3.48328 -4.781 -12.2819 -5.64826 22.1568 -1.6908 34.2304 5.48703 6.50085e-10 6.59748e-12 -7.25915e-10 1.1033e-09 2.46348e-11 -1.26831e-09 6.50088e-10 6.60173e-12 -7.25931e-10 7.73091 5.47488 0.417314 6.50078e-10 6.60398e-12 -7.25912e-10 2.90554 0.965183 0.102902 6.50083e-10 6.60236e-12 -7.25917e-10 10.2786 0.731801 0.0259123 6.50084e-10 6.60219e-12 -7.25906e-10 2.22167 -0.733487 -0.20892 2.14526e-14 1.6944e-13 -2.32873e-15 -81.0859 12.8952 -5.22754 9.67378 -3.94501 -17.1909 4.84894 51.2572 -10.0876 -9.6788e-10 -5.36935e-10 -2.4166e-10 -1.67504e-09 -8.90254e-10 -3.77888e-10 -9.6789e-10 -5.36927e-10 -2.41656e-10 -7.73091 5.47488 -0.417314 -9.67876e-10 -5.36929e-10 -2.41663e-10 -2.90554 0.965183 -0.102902 -9.67875e-10 -5.36928e-10 -2.41667e-10 -10.2786 0.731801 -0.0259123 -9.67879e-10 -5.36927e-10 -2.41684e-10 -2.22167 -0.733487 0.20892 -2.03217e-16 0.0 -3.88251e-19 4.61022 -21.9878 7.16032 -0.17521 33.4237 0.613407 -5.2981 -9.86549 -19.0838 2.03217e-16 0.0 3.88251e-19 -6.88559 -18.042 -8.48542 0.167635 27.7268 -0.44555 3.43229 -2.22645 21.7608
0.904415 83.3202 41.5883 178.636 1.754 -170.83 -3.57938 -6.0243 0.934811 3.28971 4.37428 0.255395 3.7369 -19.9221 -0.119448 0.765507 29.2612 0.19582 -0.0 0.0 0.0 -0.0 0.0 0.0 2.33902e-14 2.05146e-13 1.66979e-14 82.6927 3.39827 -4.85331 -12.2971 -5.65911 22.1862 -1.69428 34.2604 5.49323 7.67422e-10 3.55809e-11 -8.92887e-10 1.30182e-09 7.6769e-11 -1.55902e-09 7.67425e-10 3.55836e-11 -8.92903e-10 7.73091 5.47488 0.417314 7.67416e-10 3.55846e-11 -8.92883e-10 2.90554 0.965183 0.102902 7.67419e-10 3.55812e-11 -8.92887e-10 10.2786 0.731801 0.0259123 7.67418e-10 3.55817e-11 -8.92877e-10 2.22167 -0.733487 -0.20892 2.35246e-14 2.05147e-13 1.64991e-14 -81.0974 13.0465 -5.22068 9.68375 -3.95096 -17.2095 4.79258 51.0574 -10.0152 -1.25985e-09 -6.57138e-10 -2.30606e-10 -2.17631e-09 -1.09063e-09 -3.47781e-10 -1.25986e-09 -6.57132e-10 -2.306e-10 -7.73091 5.47488 -0.417314 -1.25985e-09 -6.57133e-10 -2.30609e-10 -2.90554 0.965183 -0.102902 -1.25985e-09 -6.57132e-10 -2.30612e-10 -10.2786 0.731801 -0.0259123 -1.25985e-09 -6.5713e-10 -2.30628e-10 -2.22167 -0.733487 0.20892 -2.03217e-16 0.0 -3.88251e-19 4.57446 -22.0792 7.17262 -0.180003 33.7137 0.622224 -5.36724 -9.94193 -19.1987 2.03217e-16 0.0 3.88251e-19 -6.93027 -18.028 -8.4834 0.167816 27.8226 -0.450594 3.50951 -2.4246 21.7513
0.866406 83.2636 41.4815 178.602 1.6987 -170.813 -3.6647 -6.01037 0.975719 3.32626 4.35315 0.266899 3.65588 -19.9472 0.260546 1.13157 29.3442 -0.2813 -0.0 0.0 0.0 -0.0 0.0 0.0 2.57645e-14 2.23037e-13 2.14074e-14 82.6395 3.3287 -4.88838 -12.3103 -5.66856 22.2119 -1.69597 34.2748 5.49622 1.06817e-09 1.08139e-10 -1.41474e-09 1.80671e-09 2.11006e-10 -2.46817e-09 1.06818e-09 1.08141e-10 -1.41475e-09 7.73091 5.47488 0.417314 1.06817e-09 1.0814e-10 -1.41473e-09 2.90554 0.965183 0.102902 1.06817e-09 1.08137e-10 -1.41474e-09 10.2786 0.731801 0.0259123 1.06817e-09 1.08138e-10 -1.41473e-09 2.22167 -0.733487 -0.20892 2.5868e-14 2.23037e-13 2.12098e-14 -81.1061 13.1822 -5.23367 9.69641 -3.95857 -17.2332 4.74674 50.8933 -9.95616 -1.82062e-09 -9.04226e-10 -2.52832e-10 -3.14235e-09 -1.49855e-09 -3.63276e-10 -1.82063e-09 -9.04228e-10 -2.52825e-10 -7.73091 5.47488 -0.417314 -1.82061e-09 -9.04223e-10 -2.52833e-10 -2.90554 0.965183 -0.102902 -1.82062e-09 -9.04221e-10 -2.52836e-10 -10.2786 0.731801 -0.0259123 -1.82062e-09 -9.0422e-10 -2.5285e-10 -2.22167 -0.733487 0.20892 -2.03217e-16 0.0 -3.88251e-19 4.51895 -22.2181 7.19189 -0.186339 34.0753 0.632725 -5.43413 -9.9872 -19.3277 2.03217e-16 0.0 3.88251e-19 -6.99927 -18.007 -8.46195 0.167734 27.9044 -0.45512 3.58398 -2.62146 21.7361
0.824437 83.2059 41.3742 178.553 1.6558 -170.798 -3.77835 -5.99167 1.0172 3.37129 4.34307 0.278039 3.54917 -19.9724 0.830136 1.62314 29.3868 -0.962768 -0.0 0.0 0.0 -0.0 0.0 0.0 2.79992e-14 2.33771e-13 1.83876e-14 82.5783 3.26345 -4.90168 -12.3224 -5.67728 22.2356 -1.69738 34.287 5.49873 1.51417e-09 2.06841e-10 -2.18587e-09 2.55518e-09 3.95224e-10 -3.8121e-09 1.51417e-09 2.06841e-10 -2.18588e-09 7.73091 5.47488 0.417314 1.51417e-09 2.06839e-10 -2.18586e-09 2.90554 0.965183 0.102902 1.51417e-09 2.06837e-10 -2.18587e-09 10.2786 0.731801 0.0259123 1.51417e-09 2.06839e-10 -2.18586e-09 2.22167 -0.733487 -0.20892 2.8032e-14 2.33771e-13 1.81857e-14 -81.1116 13.3142 -5.25775 9.71109 -3.96743 -17.2606 4.70572 50.7453 -9.90326 -2.59849e-09 -1.24529e-09 -2.88404e-10 -4.48303e-09 -2.05979e-09 -3.9248e-10 -2.5985e-09 -1.2453e-09 -2.88397e-10 -7.73091 5.47488 -0.417314 -2.59849e-09 -1.24529e-09 -2.88401e-10 -2.90554 0.965183 -0.102902 -2.5985e-09 -1.24529e-09 -2.88404e-10 -10.2786 0.731801 -0.0259123 -2.59849e-09 -1.24529e-09 -2.88414e-10 -2.22167 -0.733487 0.20892 -2.03217e-16 0.0 -3.88251e-19 4.44807 -22.3967 7.21543 -0.194061 34.498 0.644729 -5.499 -10.0082 -19.4664 2.03217e-16 0.0 3.88251e-19 -7.08621 -17.9812 -8.42324 0.16746 27.9775 -0.459314 3.65681 -2.81927 21.7152
